<?xml version="1.0" standalone="no"?>
<!DOCTYPE svg PUBLIC "-//W3C//DTD SVG 20010904//EN"
 "http://www.w3.org/TR/2001/REC-SVG-20010904/DTD/svg10.dtd">
<svg version="1.0" xmlns="http://www.w3.org/2000/svg"
 width="297.000000pt" height="194.000000pt" viewBox="0 0 297.000000 194.000000"
 preserveAspectRatio="xMidYMid meet">

<g transform="translate(0.000000,194.000000) scale(0.100000,-0.100000)"
fill="var(--color-brand)" stroke="none">
<path d="M2032 1744 c-18 -12 -22 -25 -22 -68 0 -80 11 -86 153 -86 l117 0 0
85 0 85 -113 0 c-86 0 -118 -4 -135 -16z m86 -67 c4 -20 -25 -34 -40 -19 -15
15 -1 44 19 40 10 -2 19 -11 21 -21z"/>
<path d="M2330 1675 c0 -84 0 -85 25 -85 24 0 24 -1 27 -101 l3 -102 49 109
c26 60 50 115 53 122 3 7 -3 12 -16 12 -26 0 -26 -2 3 70 l25 60 -85 0 -84 0
0 -85z"/>
<path d="M700 1720 c-298 -79 -512 -314 -564 -618 l-6 -33 61 3 61 3 18 72
c46 179 170 331 335 410 242 115 519 67 711 -122 63 -62 144 -182 144 -213 0
-10 -22 -18 -100 -37 -22 -5 -28 -1 -47 38 -36 74 -126 162 -206 202 -80 40
-78 41 -91 -46 l-7 -46 40 -18 c60 -27 130 -101 165 -175 39 -84 42 -193 7
-282 -24 -62 -92 -145 -147 -178 -23 -15 -33 -28 -30 -39 3 -9 10 -35 16 -58
l11 -43 52 26 c144 74 247 254 247 434 l0 59 54 15 c84 25 79 31 74 -108 l-5
-124 54 -21 c30 -12 56 -21 58 -21 12 0 27 159 22 235 -22 322 -223 578 -532
675 -103 33 -293 37 -395 10z"/>
<path d="M2030 1520 c-15 -15 -20 -33 -20 -69 0 -78 7 -81 176 -81 l144 0 0
85 0 85 -140 0 c-127 0 -142 -2 -160 -20z m88 -63 c4 -20 -25 -34 -40 -19 -15
15 -1 44 19 40 10 -2 19 -11 21 -21z"/>
<path d="M739 1461 c-169 -54 -284 -173 -334 -346 -21 -69 -16 -215 8 -281
l15 -41 -54 -32 c-30 -18 -58 -29 -64 -26 -9 6 -40 101 -54 168 -6 26 -9 27
-66 27 -41 0 -60 -4 -60 -12 0 -7 9 -51 20 -98 54 -222 191 -395 395 -496 125
-61 196 -78 335 -78 210 0 375 67 529 217 56 54 154 194 145 208 -6 10 -113
44 -117 38 -164 -249 -341 -350 -596 -337 -160 8 -316 80 -420 193 -48 52 -47
57 23 94 l45 25 44 -41 c95 -88 196 -131 325 -140 80 -6 84 -5 79 13 -4 10
-11 39 -17 64 l-11 45 -55 3 c-30 1 -78 11 -107 22 -51 19 -137 82 -137 100 0
5 32 28 71 51 l71 43 42 -48 41 -47 95 31 c93 29 96 31 148 96 51 62 53 67 42
95 -7 16 -16 32 -20 34 -15 9 -106 -28 -135 -56 -47 -43 -80 -47 -115 -14 -16
16 -35 44 -41 62 -10 31 -9 37 11 58 13 14 39 30 59 36 37 12 111 74 111 94 0
6 -11 21 -23 34 -24 21 -24 22 -103 5 -76 -16 -81 -19 -151 -87 l-72 -70 20
-49 c10 -27 19 -54 19 -61 0 -7 -31 -31 -70 -54 l-70 -42 -12 22 c-7 13 -13
59 -13 107 0 75 4 93 32 152 54 116 147 187 272 211 l59 11 9 58 10 58 -51 -1
c-28 0 -76 -8 -107 -18z"/>
<path d="M2448 1180 c-73 -22 -126 -81 -143 -157 -5 -26 -12 -32 -36 -35 l-30
-3 43 -43 44 -42 44 45 44 45 -32 0 c-26 0 -32 4 -32 20 0 29 23 70 55 100 23
21 37 25 94 26 101 2 124 23 47 43 -51 12 -60 13 -98 1z"/>
<path d="M2620 1045 l-44 -45 31 0 c42 0 47 -11 27 -60 -28 -70 -105 -110
-174 -90 -27 8 -38 7 -50 -5 -13 -14 -13 -17 0 -25 27 -17 101 -23 141 -11 71
21 138 102 139 168 0 17 7 22 31 25 l30 3 -43 43 -44 42 -44 -45z"/>
<path d="M2040 613 c-8 -3 -18 -11 -22 -17 -13 -19 -9 -341 4 -354 17 -17 439
-17 456 0 8 8 12 64 12 185 0 160 -1 173 -19 183 -21 10 -404 13 -431 3z m290
-163 l0 -50 -140 0 -140 0 0 50 0 50 140 0 140 0 0 -50z m120 -65 l0 -115 -50
0 -50 0 0 115 0 115 50 0 50 0 0 -115z m-125 -60 l0 -50 -135 0 -135 0 -3 39
c-6 68 -7 67 140 64 l133 -3 0 -50z"/>
</g>
</svg>
